<?xml version="1.0" encoding="UTF-8"?>
<svg id="Layer_2" data-name="Layer 2" xmlns="http://www.w3.org/2000/svg" viewBox="0 0 507.05 869.19">
  <defs>
    <style>
      .cls-1 {
        fill: none;
      }

      .cls-2 {
        fill: #f49f1c;
      }

      .cls-3 {
        fill: #030e4f;
      }
    </style>
  </defs>
  <g id="Layer_1-2" data-name="Layer 1">
    <g>
      <path class="cls-2" d="m349.79,169.75h21.46c15,0,27.18,12.18,27.18,27.18v4.09h-48.64v-31.27h0Z" transform="translate(245.56 -211.86) rotate(45.71)"/>
      <path class="cls-3" d="m452.75,440.67c1.29,109.97-88,200.68-197.97,201.09-109.83.39-199.31-88.77-199.45-198.46h-.51v-110.42h206.84c16.46.49,32.08,4.39,46.17,11.02,40.59,19.05,68.59,60.62,67.81,108.52-1,60.51-52.51,113.23-113,115.55-66.95,2.58-122.23-51.14-122.23-117.53h20.27c1.52,0,2.74,1.22,2.77,2.74,1.47,51.7,44.64,93.15,96.99,91.84,49.8-1.24,90.51-41.61,92.14-91.39,1.74-52.59-39.7-96.1-91.51-97.74-1.01-.05-2.02-.06-3.05-.06s-2.04.01-3.05.06H77.82l.51,87.16c0,97.41,79.67,176.55,177.26,175.7,95.43-.83,173.31-78.68,174.15-174.11.4-45.4-16.5-86.92-44.49-118.34l-.06-.06c-1.93-2.16-3.91-4.28-5.95-6.35-2.9-2.94-5.89-5.79-9-8.52l-.02-.02-58.85-58.57h-.01s-60.44-60.16-60.44-60.16l-3.11-3.08c-.14-.15-.26-.29-.39-.44-14.22-15.2-22.57-35.92-21.48-58.55,2.04-41.61,36.3-75,77.95-76,45.01-1.08,81.96,35.21,81.96,79.98,0,23.27-9.98,44.25-25.91,58.87l-15.93-16.58c12.55-11.34,20.06-28.19,18.67-46.69-2.16-28.64-25.81-51.42-54.51-52.56-32.47-1.29-59.31,24.75-59.31,56.95,0,15.03,5.86,28.72,15.4,38.92.92.99,1.88,1.93,2.86,2.84l38.41,38.24,80.35,79.98.06.05.06.06,15.92,15.85.09.1c31.06,34.64,50.14,80.2,50.73,130.13Z"/>
    </g>
    <g>
      <path class="cls-3" d="m79.56,749.32c-4.52,0-8.4-.84-11.64-2.5-3.24-1.67-5.81-3.83-7.7-6.48-1.89-2.65-3.18-5.55-3.87-8.69h11.42c.64,2.16,1.95,3.99,3.94,5.49,1.99,1.5,4.6,2.25,7.85,2.25,2.26,0,4.1-.26,5.52-.77,1.42-.52,2.46-1.2,3.09-2.06.64-.86.96-1.88.96-3.06s-.49-2.26-1.47-3.09c-.98-.83-2.25-1.52-3.79-2.06-1.55-.54-3.62-1.13-6.23-1.77-4.03-1.08-7.31-2.12-9.83-3.13-2.53-1.01-4.7-2.54-6.52-4.6-1.82-2.06-2.73-4.79-2.73-8.18,0-2.85.8-5.49,2.39-7.92,1.6-2.43,3.9-4.36,6.92-5.78,3.02-1.42,6.54-2.14,10.57-2.14,4.27,0,7.92.75,10.94,2.25,3.02,1.5,5.38,3.44,7.07,5.82,1.69,2.38,2.81,4.97,3.35,7.77h-11.42c-.44-1.62-1.49-3.01-3.13-4.16-1.65-1.15-3.92-1.73-6.81-1.73-1.87,0-3.44.25-4.71.74-1.28.49-2.22,1.15-2.84,1.99-.61.84-.92,1.77-.92,2.8,0,1.23.49,2.26,1.47,3.09.98.84,2.25,1.52,3.79,2.06,1.55.54,3.62,1.13,6.23,1.77,4.03,1.08,7.31,2.12,9.83,3.13,2.53,1.01,4.7,2.54,6.52,4.6,1.82,2.06,2.73,4.79,2.73,8.18,0,2.95-.81,5.65-2.43,8.1-1.62,2.46-4.01,4.42-7.18,5.89-3.17,1.47-6.96,2.21-11.38,2.21Z"/>
      <path class="cls-3" d="m103.5,747.85l13.63-51.57h23.21l13.63,51.57h-11.42l-2.95-11.42h-21.73l-2.95,11.42h-11.42Zm16.94-21.73h16.58l-5.16-19.52h-6.26l-5.16,19.52Z"/>
      <path class="cls-3" d="m159.12,747.85v-51.57h11.05v41.25h25.42v10.31h-36.47Z"/>
      <path class="cls-3" d="m207.38,747.85l-13.26-51.57h11.42l10.31,41.25h6.26l10.31-41.25h11.42l-13.26,51.57h-23.21Z"/>
      <path class="cls-3" d="m249.37,747.85v-51.57h38.68v10.31h-27.63v10.31h22.1v9.58h-22.1v11.05h27.63v10.31h-38.68Z"/>
      <path class="cls-3" d="m293.57,747.85v-10.31l27.26-30.2v-.74h-26.52v-10.31h40.89v10.31l-27.26,30.2v.74h27.99v10.31h-42.36Z"/>
      <path class="cls-3" d="m341.09,747.85v-10.31l27.26-30.2v-.74h-26.52v-10.31h40.89v10.31l-27.26,30.2v.74h27.99v10.31h-42.36Z"/>
      <path class="cls-3" d="m386.39,747.85l13.63-51.57h23.21l13.63,51.57h-11.42l-2.95-11.42h-21.73l-2.95,11.42h-11.42Zm16.94-21.73h16.58l-5.16-19.52h-6.26l-5.16,19.52Z"/>
      <path class="cls-3" d="m68.51,814.57l-13.26-51.57h11.42l10.31,41.25h6.26l10.31-41.25h11.42l-13.26,51.57h-23.21Z"/>
      <path class="cls-3" d="m110.5,814.57v-51.57h38.68v10.31h-27.63v10.31h22.1v9.58h-22.1v11.05h27.63v10.31h-38.68Z"/>
      <path class="cls-3" d="m156.92,814.57v-51.57h14.37l20.26,36.47h.74l-.74-6.26v-30.2h11.05v51.57h-14.37l-20.26-36.47h-.74l.74,6.26v30.2h-11.05Z"/>
      <path class="cls-3" d="m224.69,814.57v-41.25h-16.58v-10.31h44.2v10.31h-16.58v41.25h-11.05Z"/>
      <path class="cls-3" d="m279.57,816.04c-4.52,0-8.44-.88-11.75-2.65-3.32-1.77-5.87-4.3-7.66-7.59-1.79-3.29-2.69-7.12-2.69-11.49v-31.31h11.05v31.31c0,3.49,1.01,6.26,3.02,8.32,2.01,2.06,4.69,3.09,8.03,3.09s6.02-1.03,8.03-3.09c2.01-2.06,3.02-4.84,3.02-8.32v-31.31h11.05v31.31c0,4.37-.9,8.2-2.69,11.49-1.79,3.29-4.35,5.82-7.66,7.59-3.32,1.77-7.23,2.65-11.75,2.65Z"/>
      <path class="cls-3" d="m310.88,814.57v-51.57h24.31c4.08,0,7.65.76,10.72,2.28,3.07,1.52,5.43,3.61,7.07,6.26,1.65,2.65,2.47,5.57,2.47,8.77,0,3.83-1.08,7.08-3.24,9.76-2.16,2.68-5.01,4.7-8.55,6.08l11.79,18.42h-12.52l-10.68-16.94h-10.31v16.94h-11.05Zm23.94-27.26c3.04,0,5.34-.64,6.89-1.92,1.55-1.28,2.32-2.97,2.32-5.08s-.77-3.81-2.32-5.08c-1.55-1.28-3.84-1.92-6.89-1.92h-12.89v14h12.89Z"/>
      <path class="cls-3" d="m362.82,814.57v-51.57h38.68v10.31h-27.63v10.31h22.1v9.58h-22.1v11.05h27.63v10.31h-38.68Z"/>
      <path class="cls-3" d="m429.49,816.04c-4.52,0-8.4-.84-11.64-2.5-3.24-1.67-5.81-3.83-7.7-6.48-1.89-2.65-3.18-5.55-3.87-8.69h11.42c.64,2.16,1.95,3.99,3.94,5.49,1.99,1.5,4.6,2.25,7.85,2.25,2.26,0,4.1-.26,5.52-.77,1.42-.52,2.46-1.2,3.09-2.06.64-.86.96-1.88.96-3.06s-.49-2.26-1.47-3.09c-.98-.83-2.25-1.52-3.79-2.06-1.55-.54-3.62-1.13-6.23-1.77-4.03-1.08-7.31-2.12-9.83-3.13-2.53-1.01-4.7-2.54-6.52-4.6-1.82-2.06-2.73-4.79-2.73-8.18,0-2.85.8-5.49,2.39-7.92,1.6-2.43,3.9-4.36,6.92-5.78,3.02-1.42,6.54-2.14,10.57-2.14,4.27,0,7.92.75,10.94,2.25,3.02,1.5,5.38,3.44,7.07,5.82,1.69,2.38,2.81,4.97,3.35,7.77h-11.42c-.44-1.62-1.49-3.01-3.13-4.16-1.65-1.15-3.92-1.73-6.81-1.73-1.87,0-3.44.25-4.71.74-1.28.49-2.22,1.15-2.84,1.99-.61.84-.92,1.77-.92,2.8,0,1.23.49,2.26,1.47,3.09.98.84,2.25,1.52,3.79,2.06,1.55.54,3.62,1.13,6.23,1.77,4.03,1.08,7.31,2.12,9.83,3.13,2.53,1.01,4.7,2.54,6.52,4.6,1.82,2.06,2.73,4.79,2.73,8.18,0,2.95-.81,5.65-2.43,8.1-1.62,2.46-4.01,4.42-7.18,5.89-3.17,1.47-6.96,2.21-11.38,2.21Z"/>
    </g>
    <rect class="cls-1" width="507.05" height="869.19"/>
  </g>
</svg>