<svg width="165" height="56" viewBox="0 0 165 56" fill="none" xmlns="http://www.w3.org/2000/svg">
<rect x="0.5" y="0.5" width="164" height="55" rx="27.5" fill="white"/>
<rect x="0.5" y="0.5" width="164" height="55" rx="27.5" stroke="#CBCBCB"/>
<path d="M25.9613 35V21H28.6613L34.9613 33.1H35.3613V21H36.9613V35H34.2613L27.9613 22.9H27.5613V35H25.9613ZM47.5805 33.76C46.6739 34.72 45.5339 35.2 44.1605 35.2C42.7872 35.2 41.6405 34.72 40.7205 33.76C39.8139 32.7867 39.3605 31.5333 39.3605 30C39.3605 28.4667 39.8139 27.22 40.7205 26.26C41.6405 25.2867 42.7872 24.8 44.1605 24.8C45.5339 24.8 46.6739 25.2867 47.5805 26.26C48.5005 27.22 48.9605 28.4667 48.9605 30C48.9605 31.5333 48.5005 32.7867 47.5805 33.76ZM41.8005 32.74C42.4405 33.4467 43.2272 33.8 44.1605 33.8C45.0939 33.8 45.8739 33.4467 46.5005 32.74C47.1405 32.0333 47.4605 31.12 47.4605 30C47.4605 28.88 47.1405 27.9667 46.5005 27.26C45.8739 26.5533 45.0939 26.2 44.1605 26.2C43.2272 26.2 42.4405 26.5533 41.8005 27.26C41.1739 27.9667 40.8605 28.88 40.8605 30C40.8605 31.12 41.1739 32.0333 41.8005 32.74ZM51.4613 33.3V26.4H49.8613V25H51.4613V22.2H52.9613V25H55.2613V26.4H52.9613V33C52.9613 33.4 53.1613 33.6 53.5613 33.6H55.2613V35H53.2613C52.7013 35 52.2613 34.8467 51.9413 34.54C51.6213 34.2333 51.4613 33.82 51.4613 33.3ZM57.6582 35V25H59.1582V35H57.6582ZM57.5582 22.9V21.2H59.2582V22.9H57.5582ZM62.7504 35V26.4H61.1504V25H62.7504V23.1C62.7504 22.58 62.9104 22.1667 63.2304 21.86C63.5504 21.5533 63.9904 21.4 64.5504 21.4H66.3504V22.8H64.8504C64.4504 22.8 64.2504 23 64.2504 23.4V25H66.3504V26.4H64.2504V35H62.7504ZM68.1418 39V37.6H70.0418C70.3751 37.6 70.6085 37.4 70.7418 37L71.1418 35.8L67.0418 25H68.6418L71.7418 33.3H72.1418L74.9418 25H76.5418L72.0418 37.6C71.8685 38.0933 71.6418 38.4467 71.3618 38.66C71.0818 38.8867 70.6751 39 70.1418 39H68.1418ZM82.148 35V25H83.448L83.648 26.1H83.748C83.948 25.86 84.1814 25.6467 84.448 25.46C85.0747 25.02 85.708 24.8 86.348 24.8C87.2147 24.8 87.9614 25.0867 88.588 25.66C88.8547 25.9 89.0747 26.18 89.248 26.5H89.348C89.5747 26.1667 89.848 25.8867 90.168 25.66C90.9014 25.0867 91.728 24.8 92.648 24.8C93.688 24.8 94.548 25.1667 95.228 25.9C95.908 26.62 96.248 27.5533 96.248 28.7V35H94.748V28.7C94.748 27.94 94.5414 27.3333 94.128 26.88C93.7147 26.4267 93.1547 26.2 92.448 26.2C91.7814 26.2 91.1947 26.4467 90.688 26.94C90.1947 27.42 89.948 28.0067 89.948 28.7V35H88.448V28.7C88.448 27.94 88.2414 27.3333 87.828 26.88C87.4147 26.4267 86.8547 26.2 86.148 26.2C85.4814 26.2 84.8947 26.4467 84.388 26.94C83.8947 27.42 83.648 28.0067 83.648 28.7V35H82.148ZM105.943 32.2H107.543C107.196 33.16 106.649 33.9 105.903 34.42C105.169 34.94 104.283 35.2 103.243 35.2C101.869 35.2 100.723 34.72 99.8026 33.76C98.8959 32.7867 98.4426 31.5333 98.4426 30C98.4426 28.4667 98.8959 27.22 99.8026 26.26C100.723 25.2867 101.869 24.8 103.243 24.8C104.563 24.8 105.656 25.2533 106.523 26.16C107.403 27.0667 107.843 28.2133 107.843 29.6C107.843 29.8133 107.823 30.1 107.783 30.46L107.743 30.7H99.9426C100.049 31.6333 100.409 32.3867 101.023 32.96C101.649 33.52 102.389 33.8 103.243 33.8C103.843 33.8 104.376 33.66 104.843 33.38C105.323 33.1 105.689 32.7067 105.943 32.2ZM99.9426 29.3H106.343C106.289 28.3933 105.969 27.6533 105.383 27.08C104.809 26.4933 104.096 26.2 103.243 26.2C102.349 26.2 101.603 26.4867 101.003 27.06C100.403 27.6333 100.049 28.38 99.9426 29.3Z" fill="#2D2D2D"/>
<path d="M122.694 28L119.299 19.2718C119.063 18.6644 119.655 18.0834 120.241 18.2899L120.334 18.3292L138.334 27.3292C138.852 27.5883 138.884 28.2978 138.431 28.6132L138.334 28.6708L120.334 37.6708C119.751 37.9623 119.117 37.4263 119.269 36.8238L119.299 36.7282L122.694 28L119.299 19.2718L122.694 28ZM121.402 20.5404L124.011 27.2494L130.639 27.25C131.018 27.25 131.332 27.5322 131.382 27.8982L131.389 28C131.389 28.3797 131.107 28.6935 130.74 28.7432L130.639 28.75L124.011 28.7494L121.402 35.4596L136.321 28L121.402 20.5404Z" fill="#2D2D2D"/>
</svg>
