<svg width="216" height="40" viewBox="0 0 216 40" fill="none" xmlns="http://www.w3.org/2000/svg">
<g clip-path="url(#clip0_4_241)">
<path d="M40 20C40 8.9543 31.0457 0 20 0C8.9543 0 0 8.9543 0 20C0 29.9824 7.31367 38.2566 16.875 39.757V25.7813H11.7969V20H16.875V15.5938C16.875 10.5813 19.8609 7.8125 24.4293 7.8125C26.6168 7.8125 28.9062 8.20312 28.9062 8.20312V13.125H26.3844C23.9 13.125 23.125 14.6668 23.125 16.25V20H28.6719L27.7852 25.7813H23.125V39.757C32.6863 38.2566 40 29.9824 40 20Z" fill="white"/>
</g>
<path d="M100.579 36.2511C115.674 36.2511 123.93 23.7455 123.93 12.9007C123.93 12.5455 123.93 12.1919 123.906 11.8399C125.512 10.6782 126.898 9.23974 128 7.59194C126.502 8.25594 124.913 8.69119 123.286 8.88313C125 7.85762 126.282 6.24444 126.894 4.34393C125.283 5.29995 123.521 5.97365 121.683 6.33594C120.446 5.02023 118.809 4.149 117.027 3.85708C115.245 3.56515 113.416 3.86879 111.823 4.72102C110.231 5.57325 108.964 6.92656 108.218 8.57152C107.472 10.2165 107.289 12.0614 107.698 13.8207C104.435 13.6571 101.243 12.8091 98.3291 11.3319C95.4153 9.85476 92.8446 7.78137 90.784 5.24633C89.7345 7.05299 89.4131 9.19171 89.8852 11.227C90.3572 13.2624 91.5872 15.0413 93.3248 16.2015C92.0187 16.1633 90.7411 15.8109 89.6 15.1743V15.2783C89.6005 17.1731 90.2564 19.0093 91.4565 20.4756C92.6565 21.9419 94.3268 22.948 96.184 23.3231C94.9758 23.6527 93.7081 23.7009 92.4784 23.4639C93.003 25.0945 94.024 26.5203 95.3987 27.5422C96.7734 28.564 98.433 29.1307 100.146 29.1631C98.4441 30.5006 96.4955 31.4895 94.4115 32.0731C92.3274 32.6568 90.1487 32.8239 88 32.5647C91.7531 34.9731 96.1199 36.2506 100.579 36.2447" fill="white"/>
<g clip-path="url(#clip1_4_241)">
<path d="M196 3.60156C201.344 3.60156 201.977 3.625 204.078 3.71875C206.031 3.80469 207.086 4.13281 207.789 4.40625C208.719 4.76563 209.391 5.20313 210.086 5.89844C210.789 6.60156 211.219 7.26563 211.578 8.19531C211.852 8.89844 212.18 9.96094 212.266 11.9062C212.359 14.0156 212.383 14.6484 212.383 19.9844C212.383 25.3281 212.359 25.9609 212.266 28.0625C212.18 30.0156 211.852 31.0703 211.578 31.7734C211.219 32.7031 210.781 33.375 210.086 34.0703C209.383 34.7734 208.719 35.2031 207.789 35.5625C207.086 35.8359 206.023 36.1641 204.078 36.25C201.969 36.3438 201.336 36.3672 196 36.3672C190.656 36.3672 190.023 36.3438 187.922 36.25C185.969 36.1641 184.914 35.8359 184.211 35.5625C183.281 35.2031 182.609 34.7656 181.914 34.0703C181.211 33.3672 180.781 32.7031 180.422 31.7734C180.148 31.0703 179.82 30.0078 179.734 28.0625C179.641 25.9531 179.617 25.3203 179.617 19.9844C179.617 14.6406 179.641 14.0078 179.734 11.9062C179.82 9.95312 180.148 8.89844 180.422 8.19531C180.781 7.26563 181.219 6.59375 181.914 5.89844C182.617 5.19531 183.281 4.76563 184.211 4.40625C184.914 4.13281 185.977 3.80469 187.922 3.71875C190.023 3.625 190.656 3.60156 196 3.60156ZM196 0C190.57 0 189.891 0.0234375 187.758 0.117188C185.633 0.210938 184.172 0.554687 182.906 1.04688C181.586 1.5625 180.469 2.24219 179.359 3.35938C178.242 4.46875 177.563 5.58594 177.047 6.89844C176.555 8.17188 176.211 9.625 176.117 11.75C176.023 13.8906 176 14.5703 176 20C176 25.4297 176.023 26.1094 176.117 28.2422C176.211 30.3672 176.555 31.8281 177.047 33.0938C177.563 34.4141 178.242 35.5312 179.359 36.6406C180.469 37.75 181.586 38.4375 182.898 38.9453C184.172 39.4375 185.625 39.7812 187.75 39.875C189.883 39.9688 190.563 39.9922 195.992 39.9922C201.422 39.9922 202.102 39.9688 204.234 39.875C206.359 39.7812 207.82 39.4375 209.086 38.9453C210.398 38.4375 211.516 37.75 212.625 36.6406C213.734 35.5312 214.422 34.4141 214.93 33.1016C215.422 31.8281 215.766 30.375 215.859 28.25C215.953 26.1172 215.977 25.4375 215.977 20.0078C215.977 14.5781 215.953 13.8984 215.859 11.7656C215.766 9.64063 215.422 8.17969 214.93 6.91406C214.438 5.58594 213.758 4.46875 212.641 3.35938C211.531 2.25 210.414 1.5625 209.102 1.05469C207.828 0.5625 206.375 0.21875 204.25 0.125C202.109 0.0234375 201.43 0 196 0Z" fill="white"/>
<path d="M196 9.72656C190.328 9.72656 185.727 14.3281 185.727 20C185.727 25.6719 190.328 30.2734 196 30.2734C201.672 30.2734 206.273 25.6719 206.273 20C206.273 14.3281 201.672 9.72656 196 9.72656ZM196 26.6641C192.32 26.6641 189.336 23.6797 189.336 20C189.336 16.3203 192.32 13.3359 196 13.3359C199.68 13.3359 202.664 16.3203 202.664 20C202.664 23.6797 199.68 26.6641 196 26.6641Z" fill="white"/>
<path d="M209.078 9.32035C209.078 10.6485 208 11.7188 206.68 11.7188C205.352 11.7188 204.281 10.6407 204.281 9.32035C204.281 7.99222 205.359 6.92191 206.68 6.92191C208 6.92191 209.078 8.00003 209.078 9.32035Z" fill="white"/>
</g>
<defs>
<clipPath id="clip0_4_241">
<rect width="40" height="40" fill="white"/>
</clipPath>
<clipPath id="clip1_4_241">
<rect width="40" height="40" fill="white" transform="translate(176)"/>
</clipPath>
</defs>
</svg>
